<svg xmlns="http://www.w3.org/2000/svg" viewBox="0 0 1200 630" role="img" aria-labelledby="title desc">
  <title id="title">Belovodye UiKit</title>
  <desc id="desc">Governed Vue 3 UI platform monorepo with docs, playground, and strict architecture rules.</desc>
  <defs>
    <linearGradient id="bg" x1="110" y1="42" x2="1086" y2="610" gradientUnits="userSpaceOnUse">
      <stop offset="0" stop-color="#f9fcfe" />
      <stop offset="1" stop-color="#e7eff4" />
    </linearGradient>
    <radialGradient id="halo" cx="0" cy="0" r="1" gradientUnits="userSpaceOnUse" gradientTransform="translate(285 126) rotate(49.3641) scale(653.677 841.844)">
      <stop offset="0" stop-color="#46c1ff" stop-opacity="0.28" />
      <stop offset="1" stop-color="#46c1ff" stop-opacity="0" />
    </radialGradient>
    <linearGradient id="accent" x1="280" y1="166" x2="923" y2="541" gradientUnits="userSpaceOnUse">
      <stop offset="0" stop-color="#46c1ff" />
      <stop offset="1" stop-color="#12638f" />
    </linearGradient>
  </defs>
  <rect width="1200" height="630" rx="0" fill="url(#bg)" />
  <rect width="1200" height="630" rx="0" fill="url(#halo)" />
  <rect x="86" y="74" width="1028" height="482" rx="40" fill="#ffffff" fill-opacity="0.76" stroke="#d7e4ec" />
  <g>
    <rect x="138" y="132" width="430" height="278" rx="30" fill="#ffffff" stroke="#d7e4ec" />
    <rect x="612" y="132" width="454" height="128" rx="26" fill="#ffffff" stroke="#d7e4ec" />
    <rect x="612" y="282" width="454" height="128" rx="26" fill="#ffffff" stroke="#d7e4ec" />
    <rect x="612" y="432" width="454" height="68" rx="24" fill="#ffffff" stroke="#d7e4ec" />
  </g>
  <g fill="none" stroke="url(#accent)" stroke-width="10" stroke-linecap="round">
    <path d="M230 252C304 200 356 208 426 250" />
    <path d="M426 250C520 300 612 208 732 196" />
    <path d="M426 250C520 322 655 344 774 346" />
  </g>
  <g fill="url(#accent)">
    <circle cx="230" cy="252" r="18" />
    <circle cx="426" cy="250" r="22" />
    <circle cx="732" cy="196" r="18" />
    <circle cx="774" cy="346" r="18" />
  </g>
  <text x="140" y="498" font-family="Inter, ui-sans-serif, system-ui, sans-serif" font-size="26" font-weight="700" letter-spacing="0.22em" fill="#12638f">
    BELOVODYE UIKIT
  </text>
  <text x="140" y="566" font-family="Inter, ui-sans-serif, system-ui, sans-serif" font-size="62" font-weight="700" fill="#142530">
    Governed Vue 3 UI platform monorepo
  </text>
  <text x="140" y="608" font-family="Inter, ui-sans-serif, system-ui, sans-serif" font-size="28" fill="#566d7b">
    Tokens, themes, motion, overlays, systems, widgets, templates, docs, playground, and CI-enforced architecture.
  </text>
</svg>
